<svg width="789" height="722" viewBox="0 0 789 722" fill="none" xmlns="http://www.w3.org/2000/svg">
<path d="M779.657 349.199C776.954 346.625 774.766 344.823 772.513 342.763L766.078 337.035C757.325 329.633 749.28 323.069 742.329 317.727C728.427 307.236 718.902 301.573 716.971 303.31C715.04 305.048 721.219 313.801 732.675 326.673C738.403 333.109 745.547 340.51 753.463 348.555L763.632 358.596C742.65 356.6 697.341 354.991 600.994 354.798C499.627 354.798 349.218 356.729 224.295 361.234C161.801 363.358 105.744 365.739 65.2613 368.185C24.7788 370.631 -0.0642353 372.69 0.000124748 374.235C0.0644848 375.78 24.972 376.423 65.5188 376.681H224.617C349.539 376.681 499.691 376.681 600.93 376.681C699.98 376.681 744.967 376.295 765.241 374.557C763.567 376.681 761.572 378.933 759.577 380.993C755.651 385.434 751.725 389.617 747.864 393.543C740.205 401.33 732.868 408.088 726.496 413.623C713.624 424.758 705.45 431.58 706.866 433.768C708.282 435.956 719.288 432.738 734.927 423.535C744.045 418.162 752.661 411.98 760.671 405.063C765.176 401.202 769.682 396.954 774.122 392.191C776.375 389.81 778.435 387.622 780.559 384.79C783.27 381.673 785.444 378.128 786.995 374.299C788.768 369.502 788.768 364.229 786.995 359.432C785.333 355.411 782.831 351.79 779.657 348.813" fill="black"/>
<path d="M306.822 498.416C280.639 551.341 257.707 599.143 241.667 633.919C225.627 668.694 216.51 690.385 217.846 691.026C219.181 691.667 230.97 671.259 249.337 637.728L320.622 505.502C376.219 401.525 444.066 277.095 489.926 193.237C535.787 109.38 555.441 71.9395 562.706 54.8047L563.616 53.1019C564.867 55.814 566.101 59.1014 567.336 62.3889C569.401 67.945 571.238 73.3797 572.823 78.6059C576.136 89.0623 578.548 98.7454 580.512 106.948C584.261 123.549 586.336 134 588.99 133.814C591.644 133.627 593.883 122.344 593.228 104.186C592.723 93.6048 591.316 83.0858 589.021 72.7438C587.74 66.95 586.119 60.974 584.013 54.8122C582.975 51.7028 582.073 48.8852 580.521 45.6466C579.092 41.7666 576.987 38.1703 574.304 35.0244C570.929 31.1751 566.269 28.6837 561.194 28.0141C556.849 27.5726 552.461 28.0914 548.339 29.5337C544.794 30.7036 542.203 31.7267 539.295 32.7988L531.209 35.7735C520.555 40.0024 511.029 44.0318 502.984 47.6122C487.121 54.8945 477.605 60.6806 478.257 63.1459C478.909 65.6112 489.568 64.377 506.264 60.3136C514.61 58.3538 524.536 55.487 535.363 52.2995L548.459 48.2816C537.368 64.2462 515.587 100.477 470.664 182.719C424.742 266.69 359.044 392.561 306.822 498.416Z" fill="black"/>
<path d="M286.715 233.027C280.684 229.528 281.517 230.112 280.183 229.395C279.737 229.339 278.908 229.233 278.973 228.217C279.038 227.201 279.62 227.207 280.054 226.853C280.513 226.45 281.014 226.101 281.546 225.814L281.929 225.863L282.77 225.356L286.095 223.663L299.912 216.89C309.172 212.335 318.495 207.789 327.684 202.269C333.246 199.04 338.423 195.115 343.099 190.579C344.559 189.127 345.889 187.536 347.072 185.828C348.022 184.169 348.731 182.373 349.176 180.499C349.592 176.517 348.491 172.546 346.114 169.458C343.792 166.244 341.033 163.408 337.925 161.041C335.887 159.416 333.916 157.936 332.014 156.601C327.835 153.815 323.74 151.382 319.638 149.016C303.137 139.745 286.996 132.226 271.632 125.216C241.006 111.414 212.638 100.221 188.989 91.1307C165.341 82.0408 146.131 75.2233 132.762 70.857C119.393 66.4907 111.881 64.4413 111.642 65.2984C117.693 69.6114 124.264 73.0652 131.189 75.5722L185.879 100.292C208.901 110.736 236.461 123.192 266.584 137.886C281.625 145.401 297.37 153.483 312.881 162.901C316.792 165.243 320.615 167.778 324.301 170.365C326.14 171.691 327.906 173.077 329.609 174.455C330.269 175.023 330.883 175.65 331.443 176.327C331.725 176.61 331.945 176.956 332.086 177.339C332.227 177.723 332.287 178.135 332.261 178.548C331.801 179.265 331.216 179.886 330.538 180.376C327.355 182.61 324.027 184.604 320.58 186.344C312.268 191.088 303.124 195.248 293.898 199.534C289.158 201.66 284.473 203.862 279.724 206.056L276.136 207.784L273.564 209.163L270.503 210.821C266.664 212.817 263.14 215.432 260.059 218.57C257.386 221.201 255.674 224.733 255.226 228.536C255.121 230.397 255.464 232.249 256.224 233.92C256.848 235.49 257.741 236.923 258.859 238.148C262.079 241.218 265.697 243.793 269.608 245.798L277.898 250.883L304.714 267.135C340.454 289.099 362.683 298.665 396.5 322.5C395 326 396.5 323 392.5 329.5L391.5 331.5C391.5 331.5 390.4 334.414 390 334.5C386 342.5 385 344.017 380.5 353.5C375 362.5 375.139 363.5 368 377.5C366.568 380.309 365 383 364 385L361 391L357.5 397.5C356.5 400 355.5 401.5 354.5 403C354 405 354 405 355.5 407C357 409 357 409 359.5 412C361.5 415 361.859 415.365 363 417L365.753 419.922C367.213 421.678 368.737 423.443 370.388 425.224L375.691 430.883L385.277 441.048L421.197 478.874C466.184 526.867 497.993 562.394 521.061 587.727C544.13 613.059 558.487 628.475 567.518 637.409C569.653 639.456 571.377 641.178 572.952 642.539C571.168 642.312 569.319 642.076 567.535 641.849C560.312 640.587 553.344 639.357 546.686 638.236C533.361 636.06 521.269 634.382 511.109 633.292C490.799 631.045 477.91 631.042 477.431 633.78C476.953 636.518 488.809 641.579 508.529 647.437C518.394 650.333 530.171 653.472 543.303 656.648C549.591 658.132 556.762 659.797 563.934 661.462C567.567 661.925 571.187 663 574.913 663.748L577.717 664.105L580.012 664.398C580.968 664.52 581.924 664.641 582.816 664.755C586.507 665.144 590.218 664.03 593.188 661.639C595.47 659.774 597.286 657.35 598.474 654.584C599.663 651.817 600.188 648.793 600.001 645.781L598.266 619.754L596.434 597.537C595.194 583.383 593.828 570.715 592.461 560.096C589.676 539.259 586.816 526.128 584.508 526.448C582.2 526.769 580.756 539.624 580.047 561.449C579.851 572.143 579.898 584.984 580.221 599.225L580.863 621.632L581.142 628.085L578.557 624.479C570.96 613.953 557.738 597.248 535.389 570.846C513.04 544.444 481.508 508.27 436.236 459.968L400.134 422.051C396.988 418.782 393.778 415.506 390.586 412.095L386.247 407.514L388.012 406.374C389.912 405.182 391.94 404.007 393.96 402.899C402.191 398.281 410.97 393.938 419.894 389.477C424.38 387.318 428.882 385.025 433.694 382.839L440.607 379.418L444.421 377.447C446.576 376.288 448.859 375.145 451.342 373.959C455.407 372.213 458.899 369.234 461.37 365.406C462.405 363.706 463.03 361.769 463.19 359.767C463.408 357.713 463.209 355.64 462.605 353.684C461.356 349.704 459.301 346.065 456.581 343.017C454.802 341.22 453.078 339.499 451.337 337.912L450.055 336.792L449.231 336.141L447.656 334.78C439.159 327.757 430.543 321.676 421.79 315.645C386.728 291.924 349.854 270.225 313.693 249.027C304.604 243.772 295.558 238.523 286.554 233.28" fill="black"/>
<path d="M432.809 370.882C432.346 370.664 431.896 370.416 431.46 370.14C430.997 369.922 430.548 369.674 430.112 369.398C427.144 367.29 425.5 364.923 425.182 362.296C424.865 359.67 425.334 357.025 426.589 354.363C427.49 352.452 428.65 350.593 430.069 348.786C431.515 346.92 433.049 345.168 434.672 343.527C436.799 341.417 438.273 339.494 439.092 337.757L439.337 337.236C439.307 337.151 439.332 337.022 439.414 336.848C439.923 335.319 439.657 334.309 438.615 333.817C437.689 333.38 436.287 333.427 434.409 333.957C432.733 334.51 431.303 335.216 430.121 336.073C425.873 339.377 422.682 343.144 420.546 347.372C420 348.53 419.219 349.436 418.203 350.089C417.327 350.596 416.658 350.74 416.195 350.521C415.558 350.221 415.329 349.582 415.507 348.605C415.743 347.654 415.983 346.919 416.229 346.398C416.557 345.703 417.841 343.655 420.082 340.254C420.304 339.934 420.483 339.63 420.619 339.34C420.841 339.02 421.02 338.716 421.156 338.426C421.866 336.921 422.176 335.44 422.085 333.982C422.025 332.609 421.474 331.677 420.432 331.185C418.348 330.202 415.499 331.442 411.886 334.903C410.877 335.842 409.538 338.006 407.869 341.393L407.337 342.522C407.227 342.754 407.105 343.014 406.968 343.304C406.889 343.62 406.811 343.937 406.732 344.254C406.305 345.609 405.942 346.605 405.641 347.242C405.123 348.342 404.565 348.999 403.969 349.213C403.369 349.284 402.896 349.237 402.548 349.074C401.564 348.61 401.385 347.64 402.009 346.166L404.257 341.176C404.499 340.512 404.716 339.977 404.907 339.572C405.098 339.167 405.248 338.848 405.358 338.617C405.9 337.316 406.4 336.031 406.858 334.76C407.343 333.432 407.814 332.133 408.272 330.863C408.241 330.778 408.28 330.619 408.39 330.388C408.581 329.983 408.847 329.719 409.187 329.597C409.528 329.474 409.814 329.468 410.046 329.577C410.393 329.741 410.544 330.095 410.5 330.64C410.513 331.212 410.415 331.945 410.206 332.837C410.052 333.614 409.694 334.824 409.13 336.469C410.297 334.896 411.314 333.713 412.184 332.92C413.08 332.07 414.037 331.318 415.052 330.665C417.622 329.117 419.717 328.725 421.338 329.49C422.724 330.002 423.621 331.026 424.028 332.563C424.435 334.1 424.229 336.337 423.409 339.276C425.175 337.633 426.634 336.339 427.786 335.397C428.996 334.482 430.068 333.784 431.002 333.305C433.885 331.693 436.439 331.305 438.662 332.141C438.805 332.138 439.022 332.205 439.311 332.341C441.916 333.57 442.542 335.917 441.19 339.384C440.815 340.48 438.859 343.202 435.322 347.549C433.542 349.823 432.202 351.915 431.301 353.825C430.864 354.751 430.512 355.647 430.246 356.512C429.98 357.377 429.725 358.141 429.483 358.805C428.622 361.23 428.802 363.473 430.024 365.535C431.245 367.597 432.81 369.078 434.72 369.979C436.804 370.962 438.683 371.105 440.356 370.408C440.952 370.194 441.373 369.827 441.619 369.306C441.701 369.132 441.754 368.945 441.778 368.744C441.832 368.628 441.872 368.47 441.896 368.269C441.92 368.068 441.986 367.852 442.096 367.62C442.341 367.099 442.638 366.92 442.985 367.084C443.217 367.193 443.296 367.55 443.224 368.152C443.152 368.755 442.993 369.317 442.748 369.838C442.447 370.475 442.016 371.014 441.454 371.457C440.24 372.229 438.843 372.49 437.263 372.24C435.741 372.017 434.256 371.565 432.809 370.882Z" fill="white"/>
<path d="M407.819 362.664C407.688 362.833 407.504 362.825 407.269 362.642C406.595 362.118 406.398 361.641 406.679 361.211L407.548 359.779L408.755 358.123C409.985 356.54 410.786 355.649 411.156 355.45C411.414 355.327 411.645 355.344 411.847 355.501C412.184 355.763 412.26 356.011 412.077 356.247C412.025 356.315 411.969 356.352 411.909 356.36C411.796 356.434 411.688 356.539 411.583 356.674C411.445 356.783 411.31 356.921 411.179 357.089C410.734 357.662 409.614 359.52 407.819 362.664Z" fill="white"/>
<path d="M375.103 400.053C374.442 400.353 373.971 400.191 373.689 399.57C373.672 399.531 373.685 398.939 373.728 397.795C373.772 396.651 373.807 394.972 373.834 392.758L373.98 385.174C374.04 382.102 373.988 379.713 373.823 378.007C373.698 376.284 373.539 375.208 373.345 374.781C373.063 374.159 373.233 373.707 373.855 373.425C374.477 373.144 374.928 373.314 375.21 373.935C375.439 374.44 375.625 375.316 375.769 376.563C375.934 377.753 376.025 379.351 376.045 381.357L376.137 389.466C379.608 375.525 383.404 367.622 387.523 365.754C388.3 365.402 389.052 365.459 389.779 365.926C390.489 366.354 391.019 366.957 391.372 367.734C392.217 369.6 392.347 373.452 391.762 379.292C392.87 376.26 393.998 373.219 395.146 370.169C396.314 367.063 397.5 363.996 398.704 360.968C399.019 360.216 399.352 359.761 399.701 359.602C400.168 359.391 400.662 359.448 401.184 359.773C401.689 360.06 402.056 360.456 402.285 360.961C402.461 361.349 402.506 361.914 402.421 362.656C402.303 363.74 402.303 364.981 402.422 366.379C402.523 367.739 402.636 369.28 402.761 371.004C402.897 372.957 403.111 374.616 403.402 375.983C403.694 377.35 404.016 378.422 404.368 379.199C404.809 380.171 405.368 380.784 406.045 381.039C406.705 381.255 407.269 381.258 407.735 381.046C408.551 380.676 409.348 380.057 410.126 379.19C410.903 378.322 411.506 377.533 411.934 376.824C412.808 375.444 413.652 373.844 414.466 372.023C415.262 370.163 416.001 368.329 416.681 366.522C416.766 366.296 416.963 366.112 417.274 365.971C417.857 365.707 418.254 365.808 418.466 366.275C418.66 366.702 418.608 367.311 418.31 368.102C417.46 370.361 416.669 372.336 415.936 374.026C415.186 375.678 414.406 377.109 413.596 378.319C413.051 379.082 412.36 379.934 411.522 380.875C410.684 381.817 409.663 382.561 408.458 383.107C407.331 383.618 406.221 383.7 405.126 383.353C404.071 382.988 403.024 381.659 401.984 379.366C401.579 378.473 401.259 377.353 401.024 376.007C400.771 374.623 400.612 373.032 400.547 371.234L400.308 362.489L395.776 374.662C395.245 376.074 394.819 377.251 394.496 378.193C394.174 379.136 393.915 379.909 393.72 380.512C393.334 381.624 393.017 382.681 392.769 383.684C392.56 384.669 392.384 385.522 392.242 386.242C392.164 386.792 391.95 387.147 391.6 387.306C390.939 387.605 390.486 387.483 390.239 386.939C389.693 385.734 389.522 382.462 389.725 377.123C389.928 371.785 389.836 368.688 389.449 367.833C389.273 367.444 388.757 367.444 387.902 367.831C384.444 369.399 380.847 377.845 377.112 393.17C376.85 394.553 376.339 396.682 375.58 399.556C375.534 399.764 375.375 399.93 375.103 400.053Z" fill="white"/>
</svg>
