<svg width="789" height="722" viewBox="0 0 789 722" fill="none" xmlns="http://www.w3.org/2000/svg">
<path d="M779.657 349.199C776.954 346.625 774.766 344.823 772.514 342.763L766.078 337.035C757.325 329.633 749.28 323.069 742.329 317.727C728.427 307.236 718.902 301.573 716.971 303.31C715.04 305.048 721.219 313.801 732.675 326.673C738.403 333.109 745.547 340.51 753.463 348.555L763.632 358.596C742.65 356.6 697.341 354.991 600.994 354.798C499.627 354.798 349.218 356.729 224.295 361.234C161.801 363.358 105.744 365.739 65.2613 368.185C24.7788 370.631 -0.0642353 372.69 0.000124748 374.235C0.0644848 375.78 24.972 376.423 65.5188 376.681H224.617C349.539 376.681 499.691 376.681 600.93 376.681C699.98 376.681 744.967 376.295 765.241 374.557C763.567 376.681 761.572 378.933 759.577 380.993C755.651 385.434 751.725 389.617 747.864 393.543C740.205 401.33 732.868 408.088 726.496 413.623C713.624 424.758 705.45 431.58 706.866 433.768C708.282 435.956 719.288 432.738 734.927 423.535C744.045 418.162 752.661 411.98 760.671 405.063C765.176 401.202 769.682 396.954 774.123 392.191C776.375 389.81 778.435 387.622 780.559 384.79C783.27 381.673 785.444 378.128 786.995 374.299C788.768 369.502 788.768 364.229 786.995 359.432C785.333 355.411 782.831 351.79 779.657 348.813" fill="black"/>
<path d="M306.822 498.416C280.639 551.341 257.707 599.143 241.667 633.919C225.627 668.694 216.51 690.385 217.846 691.026C219.181 691.667 230.97 671.259 249.337 637.728L320.622 505.502C376.219 401.525 444.066 277.095 489.926 193.238C535.787 109.38 555.441 71.9395 562.706 54.8048L563.616 53.102C564.867 55.814 566.101 59.1015 567.336 62.3889C569.401 67.945 571.238 73.3798 572.823 78.606C576.136 89.0623 578.548 98.7455 580.512 106.948C584.261 123.549 586.336 134 588.99 133.814C591.644 133.627 593.883 122.344 593.228 104.186C592.723 93.6049 591.316 83.0858 589.021 72.7438C587.74 66.9501 586.119 60.9741 584.013 54.8122C582.975 51.7029 582.073 48.8852 580.521 45.6466C579.092 41.7666 576.987 38.1703 574.304 35.0244C570.929 31.1751 566.269 28.6838 561.194 28.0141C556.849 27.5726 552.461 28.0915 548.339 29.5338C544.794 30.7036 542.203 31.7268 539.295 32.7989L531.209 35.7736C520.555 40.0024 511.029 44.0318 502.984 47.6123C487.121 54.8945 477.605 60.6806 478.257 63.1459C478.909 65.6112 489.568 64.377 506.264 60.3136C514.61 58.3539 524.536 55.4871 535.363 52.2995L548.459 48.2816C537.368 64.2462 515.587 100.477 470.664 182.719C424.742 266.69 359.044 392.561 306.822 498.416Z" fill="black"/>
<path d="M286.715 233.027C280.684 229.528 281.517 230.112 280.183 229.395C279.737 229.339 278.908 229.233 278.973 228.217C279.038 227.201 279.62 227.207 280.054 226.853C280.513 226.45 281.014 226.101 281.546 225.814L281.929 225.863L282.77 225.356L286.095 223.663L299.912 216.89C309.172 212.335 318.495 207.789 327.684 202.269C333.246 199.04 338.423 195.115 343.099 190.579C344.559 189.127 345.889 187.536 347.072 185.828C348.022 184.169 348.731 182.373 349.176 180.499C349.592 176.517 348.491 172.546 346.114 169.458C343.792 166.244 341.033 163.408 337.925 161.041C335.887 159.416 333.916 157.936 332.014 156.601C327.835 153.815 323.74 151.382 319.638 149.016C303.137 139.745 286.996 132.226 271.632 125.216C241.006 111.414 212.638 100.221 188.989 91.1307C165.341 82.0408 146.131 75.2233 132.762 70.857C119.393 66.4907 111.881 64.4413 111.642 65.2984C117.693 69.6114 124.264 73.0652 131.189 75.5722L185.879 100.292C208.901 110.736 236.46 123.192 266.584 137.886C281.625 145.401 297.37 153.483 312.881 162.901C316.792 165.243 320.615 167.778 324.301 170.365C326.14 171.691 327.906 173.077 329.609 174.455C330.269 175.023 330.883 175.65 331.443 176.327C331.725 176.61 331.945 176.956 332.086 177.339C332.227 177.723 332.287 178.135 332.261 178.548C331.801 179.265 331.216 179.886 330.538 180.376C327.355 182.61 324.027 184.604 320.58 186.344C312.268 191.088 303.124 195.248 293.898 199.534C289.158 201.66 284.473 203.862 279.724 206.056L276.136 207.784L273.564 209.163L270.503 210.821C266.664 212.817 263.14 215.432 260.059 218.57C257.386 221.201 255.673 224.733 255.226 228.536C255.121 230.397 255.464 232.249 256.224 233.92C256.848 235.49 257.741 236.923 258.859 238.148C262.079 241.218 265.697 243.793 269.608 245.798L277.898 250.883L304.714 267.135C340.454 289.099 376.796 311.413 410.613 335.248C418.983 341.23 427.345 347.279 434.818 353.693L437.098 355.622C437.098 355.622 437.047 356.026 436.647 356.111C428.646 359.939 420.781 363.715 413.043 367.508C403.937 371.878 394.966 376.196 386.046 381.136C383.818 382.354 381.497 383.628 379.082 384.959L377.335 385.965L374.639 387.806C372.69 389.104 370.803 390.504 368.987 392.002C365.464 394.615 362.745 398.26 361.175 402.476C360.501 404.46 360.232 406.567 360.388 408.656C360.468 410.694 361.12 412.654 362.261 414.289L365.753 419.922C367.213 421.678 368.737 423.443 370.388 425.224L375.691 430.883L385.277 441.048L421.197 478.874C466.184 526.867 497.993 562.394 521.061 587.727C544.13 613.059 558.487 628.475 567.518 637.409C569.653 639.456 571.377 641.178 572.952 642.539C571.168 642.312 569.319 642.076 567.535 641.849C560.312 640.587 553.344 639.357 546.686 638.236C533.361 636.06 521.269 634.382 511.109 633.292C490.799 631.045 477.91 631.042 477.431 633.78C476.953 636.518 488.809 641.579 508.529 647.437C518.394 650.333 530.171 653.472 543.303 656.648C549.591 658.132 556.762 659.797 563.934 661.462C567.567 661.925 571.187 663 574.913 663.748L577.717 664.105L580.012 664.398C580.968 664.52 581.924 664.641 582.816 664.755C586.507 665.144 590.218 664.029 593.188 661.639C595.47 659.774 597.286 657.35 598.474 654.584C599.663 651.817 600.188 648.793 600.001 645.781L598.266 619.754L596.434 597.537C595.194 583.383 593.828 570.715 592.461 560.096C589.676 539.259 586.816 526.128 584.508 526.448C582.2 526.769 580.756 539.624 580.047 561.449C579.851 572.143 579.898 584.984 580.221 599.225L580.863 621.632L581.142 628.085L578.557 624.479C570.96 613.953 557.738 597.248 535.389 570.846C513.04 544.444 481.508 508.27 436.236 459.968L400.134 422.051C396.988 418.782 393.778 415.506 390.586 412.095L386.247 407.514L388.012 406.374C389.912 405.182 391.94 404.007 393.96 402.899C402.191 398.281 410.97 393.938 419.894 389.477C424.38 387.318 428.882 385.025 433.694 382.839L440.607 379.419L444.421 377.447C446.576 376.288 448.859 375.145 451.342 373.959C455.407 372.213 458.899 369.234 461.37 365.406C462.405 363.706 463.03 361.769 463.19 359.767C463.408 357.713 463.209 355.64 462.605 353.684C461.356 349.704 459.301 346.065 456.581 343.017C454.802 341.22 453.078 339.499 451.337 337.912L450.055 336.792L449.231 336.141L447.656 334.78C439.159 327.757 430.543 321.676 421.79 315.645C386.728 291.924 349.854 270.225 313.693 249.027C304.604 243.772 295.558 238.523 286.554 233.28" fill="black"/>
<path d="M396 332L440 336L437 376.5L376 399.5L396 332Z" fill="black"/>
<path d="M442.566 356.989C445.344 358.505 445.344 362.495 442.566 364.011L400.166 387.149C397.501 388.604 394.25 386.675 394.25 383.638V337.362C394.25 334.325 397.501 332.396 400.166 333.851L442.566 356.989Z" fill="#94C9FF"/>
</svg>
