<svg width="274" height="249" viewBox="0 0 274 249" fill="none" xmlns="http://www.w3.org/2000/svg">
<path d="M193.942 188.177C193.032 187.756 192.149 187.28 191.293 186.747C190.382 186.327 189.499 185.85 188.643 185.317C182.815 181.247 179.601 176.658 179.002 171.551C178.403 166.444 179.355 161.294 181.859 156.1C183.655 152.375 185.96 148.746 188.775 145.215C191.645 141.57 194.687 138.144 197.903 134.935C202.118 130.808 205.042 127.051 206.675 123.664L207.165 122.648C207.105 122.482 207.157 122.23 207.32 121.891C208.34 118.911 207.825 116.949 205.777 116.003C203.956 115.163 201.193 115.268 197.487 116.318C194.177 117.413 191.352 118.8 189.012 120.48C180.606 126.952 174.276 134.313 170.021 142.563C168.932 144.821 167.384 146.591 165.375 147.872C163.644 148.867 162.323 149.154 161.412 148.734C160.16 148.156 159.715 146.916 160.076 145.012C160.551 143.161 161.033 141.728 161.523 140.711C162.176 139.357 164.729 135.359 169.182 128.719C169.622 128.094 169.978 127.499 170.25 126.935C170.691 126.31 171.047 125.715 171.319 125.151C172.734 122.215 173.36 119.33 173.196 116.494C173.092 113.824 172.016 112.016 169.968 111.07C165.871 109.18 160.243 111.62 153.084 118.391C151.085 120.229 148.424 124.452 145.099 131.061L144.038 133.263C143.82 133.714 143.575 134.222 143.303 134.787C143.145 135.404 142.987 136.021 142.828 136.638C141.972 139.279 141.245 141.221 140.647 142.463C139.613 144.608 138.507 145.892 137.329 146.315C136.147 146.459 135.214 146.374 134.531 146.059C132.597 145.166 132.253 143.282 133.5 140.407L137.982 130.675C138.467 129.38 138.899 128.338 139.28 127.548C139.661 126.757 139.961 126.136 140.178 125.685C141.262 123.148 142.261 120.642 143.176 118.166C144.146 115.577 145.088 113.045 146.004 110.569C145.944 110.403 146.023 110.095 146.241 109.643C146.622 108.853 147.149 108.337 147.822 108.096C148.495 107.854 149.059 107.838 149.514 108.048C150.197 108.363 150.491 109.051 150.397 110.112C150.417 111.225 150.217 112.651 149.796 114.389C149.484 115.902 148.765 118.261 147.637 121.467C149.952 118.395 151.971 116.083 153.692 114.531C155.469 112.867 157.361 111.394 159.37 110.113C164.451 107.075 168.585 106.291 171.771 107.762C174.497 108.744 176.254 110.728 177.04 113.713C177.827 116.699 177.397 121.055 175.75 126.781C179.247 123.565 182.137 121.034 184.418 119.188C186.812 117.395 188.932 116.027 190.778 115.085C196.477 111.918 201.514 111.138 205.888 112.742C206.17 112.734 206.595 112.862 207.164 113.124C212.285 115.488 213.495 120.049 210.794 126.807C210.042 128.944 206.158 134.26 199.143 142.754C195.61 147.196 192.946 151.28 191.15 155.006C190.28 156.812 189.577 158.558 189.043 160.244C188.509 161.93 187.999 163.42 187.514 164.714C185.793 169.44 186.124 173.803 188.509 177.802C190.894 181.801 193.964 184.667 197.72 186.401C201.816 188.291 205.517 188.55 208.822 187.177C210 186.754 210.833 186.035 211.323 185.019C211.486 184.68 211.593 184.315 211.642 183.924C211.751 183.698 211.83 183.39 211.88 182.998C211.929 182.607 212.063 182.186 212.28 181.734C212.77 180.718 213.357 180.367 214.039 180.683C214.495 180.893 214.648 181.585 214.5 182.758C214.351 183.932 214.032 185.027 213.542 186.043C212.944 187.285 212.088 188.339 210.975 189.205C208.575 190.72 205.819 191.243 202.707 190.773C199.709 190.355 196.787 189.49 193.942 188.177Z" fill="white"/>
<path d="M145.6 173.075C145.334 173.41 144.964 173.396 144.489 173.034C143.13 172.001 142.735 171.058 143.304 170.204L145.069 167.366L147.515 164.081C150.009 160.941 151.631 159.173 152.38 158.778C152.903 158.532 153.367 158.564 153.775 158.874C154.454 159.391 154.608 159.883 154.237 160.351C154.13 160.484 154.017 160.559 153.896 160.574C153.669 160.723 153.449 160.931 153.237 161.198C152.956 161.414 152.684 161.688 152.418 162.023C151.516 163.159 149.243 166.843 145.6 173.075Z" fill="white"/>
<path d="M68.7107 242.868C67.2603 243.511 66.2212 243.155 65.5935 241.8C65.5543 241.716 65.5759 240.43 65.6582 237.944C65.7405 235.457 65.7983 231.807 65.8315 226.994L66.0621 210.507C66.157 203.829 66.0137 198.635 65.6322 194.925C65.3359 191.177 64.972 188.837 64.5405 187.906C63.9128 186.551 64.2815 185.57 65.6466 184.965C67.0117 184.36 68.0081 184.734 68.6358 186.089C69.1457 187.19 69.566 189.097 69.8966 191.809C70.2732 194.398 70.4944 197.873 70.5602 202.233L70.8593 219.864C78.3343 189.598 86.5936 172.459 95.6374 168.448C97.3437 167.691 98.9996 167.824 100.605 168.848C102.171 169.786 103.347 171.103 104.131 172.796C106.014 176.861 106.346 185.239 105.128 197.927C107.531 191.349 109.977 184.751 112.466 178.134C115.001 171.395 117.575 164.741 120.188 158.171C120.873 156.54 121.599 155.555 122.367 155.214C123.391 154.76 124.479 154.89 125.633 155.603C126.747 156.232 127.559 157.097 128.069 158.198C128.461 159.045 128.567 160.274 128.388 161.885C128.142 164.24 128.158 166.938 128.435 169.98C128.674 172.937 128.941 176.289 129.237 180.037C129.559 184.284 130.049 187.895 130.707 190.87C131.365 193.845 132.086 196.179 132.871 197.873C133.852 199.99 135.089 201.33 136.584 201.892C138.039 202.37 139.279 202.381 140.303 201.927C142.094 201.133 143.841 199.797 145.542 197.919C147.244 196.041 148.561 194.334 149.495 192.797C151.401 189.808 153.239 186.338 155.009 182.388C156.74 178.354 158.343 174.376 159.818 170.455C160.002 169.965 160.436 169.569 161.118 169.266C162.398 168.698 163.273 168.923 163.744 169.939C164.176 170.87 164.069 172.194 163.424 173.909C161.58 178.811 159.862 183.095 158.269 186.761C156.638 190.344 154.938 193.446 153.17 196.067C151.98 197.718 150.469 199.562 148.636 201.6C146.803 203.638 144.564 205.244 141.919 206.417C139.445 207.514 137.002 207.679 134.589 206.911C132.262 206.106 129.941 203.205 127.627 198.208C126.725 196.26 126.007 193.823 125.473 190.894C124.9 187.882 124.531 184.421 124.367 180.513L123.735 161.498L113.908 187.908C112.756 190.971 111.83 193.525 111.132 195.571C110.434 197.616 109.874 199.293 109.452 200.603C108.616 203.016 107.931 205.311 107.396 207.487C106.947 209.626 106.571 211.478 106.267 213.042C106.101 214.238 105.634 215.007 104.866 215.347C103.416 215.991 102.416 215.719 101.867 214.534C100.651 211.908 100.235 204.794 100.619 193.189C101.003 181.585 100.764 174.852 99.9005 172.988C99.5082 172.141 98.3735 172.134 96.4965 172.967C88.9032 176.335 81.0881 194.655 73.0513 227.927C72.4894 230.932 71.3907 235.554 69.7551 241.792C69.656 242.245 69.3079 242.603 68.7107 242.868Z" fill="white"/>
</svg>
