<svg width="976" height="875" viewBox="0 0 976 875" fill="none" xmlns="http://www.w3.org/2000/svg">
<path d="M601.172 555.021C601.971 526.949 589.493 504.688 576.339 485.374C569.043 474.438 558.988 465.801 547.007 460.178C540.5 457.432 533.407 455.911 526.039 455.682C528.06 436.04 534.878 416.517 545.88 398.871C556.555 383.068 570.803 369.797 587.199 360.384C602.52 351.527 618.83 345.069 635.486 341.263C650.444 337.823 665.496 335.879 680.413 335.46C702.558 335.022 724.53 335.861 746.223 337.972C761.791 339.271 770.433 339.814 770.573 338.921C763.194 335.915 755.315 333.957 747.136 333.097C725.521 328.908 703.362 326.514 680.865 325.938C647.438 324.376 612.908 332.183 580.995 348.517C562.212 358.563 545.703 373.08 533.126 390.61C520.132 410.189 511.809 432.066 508.92 454.238C508.724 455.283 508.719 456.407 508.57 457.496C508.126 457.56 507.682 457.652 507.242 457.769C484.422 464.128 462.814 476.214 444.564 492.823L437.934 498.098C435.987 500.14 433.858 501.907 431.822 503.762C427.746 507.572 423.72 511.327 419.649 515.038L408.477 526.756C404.774 530.526 401.284 534.499 398.027 538.649C394.667 542.732 391.457 546.751 388.201 550.727C384.944 554.702 382.261 558.916 379.395 562.854C376.53 566.792 373.609 570.881 370.776 575.158C367.943 579.435 365.763 583.308 363.284 587.306C346.518 615.139 332.682 644.355 322.04 674.401C317.245 687.171 313.802 699.177 310.409 710.103C307.017 721.029 304.636 731.175 302.59 740.409C296.702 764.839 292.764 789.432 290.816 813.941L290.667 816.056L288.482 811.819L283.429 802.383L273.708 784.598C267.378 773.329 261.425 763.344 256.171 755.051C245.659 738.564 237.931 729.041 235.341 730.265C232.751 731.49 236.118 743.627 243.379 761.94C247.035 771.07 251.636 781.819 257.067 793.564L265.637 811.996L270.388 821.656C272.15 825.542 274.273 829.214 276.732 832.63C278.463 835.045 280.619 837.1 283.113 838.715C286.005 840.484 289.384 841.452 292.961 841.537C297.973 841.491 303.074 840.234 307.841 837.869C314.631 834.966 321.269 831.589 327.701 827.765C338.511 821.462 348.683 813.926 357.983 805.331C373.73 790.587 380.276 778.871 378.357 777.246C376.437 775.622 366.328 783.427 349.738 794.392C340.016 800.733 329.984 806.489 319.703 811.623C315.681 813.603 311.451 815.521 307.013 817.378L307.498 815.378C310.713 802.026 314.638 779.909 324.065 744.466C326.334 735.65 329.275 726.038 332.359 715.434C335.444 704.83 339.293 693.519 344.106 681.382C354.499 652.989 367.745 625.371 383.617 598.997C385.886 595.311 388.211 591.474 390.634 587.627C393.057 583.78 395.81 580.146 398.424 576.379C401.038 572.611 403.661 568.648 406.661 564.941L415.713 553.768C418.752 549.854 422.004 546.101 425.451 542.529L435.7 531.779C439.185 528.124 443.043 524.824 446.812 521.338L452.263 516.273L458.086 511.565C462.186 508.291 466.239 504.972 470.339 501.698C474.409 498.652 478.608 495.805 482.917 493.169C489.974 488.791 497.441 485.286 505.13 482.742C504.439 496.244 504.573 509.814 504.847 523.517C505.073 535.839 506.841 547.865 510.108 559.317C512.043 565.656 514.856 571.582 518.473 576.938C522.37 582.654 527.391 587.441 533.285 591.061C539.184 594.817 545.935 597.244 553.153 598.203C560.747 599.184 568.791 597.769 576.232 594.144C583.513 590.41 589.699 584.513 593.828 577.367C597.61 570.448 599.71 562.919 599.933 555.482L601.172 555.021ZM567.368 575.739C563.401 577.387 559.227 578.062 555.222 577.702C551.218 577.342 547.51 575.959 544.435 573.678C540.764 571.356 537.613 568.352 535.119 564.796C532.48 560.934 530.376 556.688 528.854 552.153C525.892 542.259 524.26 531.842 523.998 521.152C523.156 507.112 522.794 493.222 523.349 479.488C527.801 479.643 532.098 480.519 536.081 482.084C544.475 486.084 551.538 492.151 556.711 499.805C559.683 503.869 562.539 508.336 565.287 513.008C567.939 517.386 570.274 521.978 572.278 526.754C576.302 535.589 578.401 545.405 578.452 555.627C578.809 559.36 577.959 563.282 576.025 566.835C574.09 570.388 571.169 573.391 567.676 575.417" fill="black"/>
<path d="M247.294 388.282C212.797 431.918 196.9 480.639 198.059 521.314C198.383 539.627 201.8 557.752 208.164 574.926C212.847 588 219.347 600.349 227.472 611.611C232.692 618.815 238.645 625.458 245.235 631.434C249.933 635.425 252.508 637.291 252.829 637.034C253.151 636.776 243.626 628.023 231.526 609.23C214.931 582.933 206.427 552.339 207.069 521.25C207.069 482.634 223.803 436.617 257.721 395.555C275.619 373.82 296.763 354.977 320.407 339.69C346.216 322.842 375.115 311.291 405.427 305.708C437.327 299.982 470.167 302.621 500.744 313.367C517.593 319.18 533.297 327.892 547.147 339.111C535.563 343.295 523.399 347.542 511.042 352.627C496.187 358.47 482.131 366.169 469.208 375.539C455.753 385.476 444.637 398.24 436.641 412.932C428.354 427.792 423.739 444.418 423.179 461.423C422.619 478.429 426.132 495.322 433.423 510.695C441.929 527.879 456.184 541.541 473.713 549.311C483.562 553.537 494.34 555.134 504.992 553.945C515.136 552.635 524.905 549.262 533.696 544.033C541.671 539.397 549.153 533.963 556.029 527.815C562.823 521.875 569.149 515.419 574.951 508.507C580.76 501.772 585.992 494.559 590.59 486.946C595.261 479.386 599.184 471.389 602.304 463.069C605.462 454.773 607.622 446.131 608.74 437.325C610.113 428.53 610.33 419.594 609.384 410.744C607.513 392.961 601.471 375.872 591.749 360.865C589.101 356.716 586.222 352.719 583.125 348.894C588.788 346.577 594.388 344.131 599.794 341.493C623.153 330.043 643.75 313.663 660.164 293.48C673.615 276.85 684.466 258.274 692.344 238.388C704.056 208.147 710.12 176.015 710.236 143.586C710.54 122.062 709.206 100.547 706.245 79.2256C704.057 62.4276 701.74 49.8774 699.809 40.6096C698.329 33.2725 697.042 27.7376 695.948 23.7473L699.102 26.7722C703.377 30.5153 708.037 33.7945 713.003 36.5549C721.126 41.0533 729.773 44.5336 738.747 46.9169C753.872 50.8429 763.526 51.1647 764.491 48.9121C765.457 46.6595 757.025 41.8969 744.089 35.2678C736.745 31.6217 729.65 27.4936 722.85 22.9106C719.111 20.3925 715.6 17.5496 712.36 14.415L707.147 8.94456C706.052 7.85044 704.894 6.69191 703.414 5.46907C701.668 4.00824 699.743 2.77545 697.686 1.8005C695.135 0.614525 692.357 0 689.544 0C686.731 0 683.953 0.614525 681.403 1.8005C680.187 2.38594 679.024 3.07504 677.927 3.86007C676.833 4.69675 675.803 5.66219 675.288 6.11271L672.328 9.20186C668.659 13.0635 665.248 16.7963 662.095 20.4649C656.464 26.9457 651.2 33.7355 646.326 40.8026C638.153 52.838 634.613 61.2047 636.737 62.685C638.861 64.1653 646.262 58.4373 657.01 48.6546C662.416 43.7632 668.595 37.842 675.481 31.2773L681.917 25.2276C681.917 29.4754 682.368 35.1391 683.076 42.9266C683.977 52.4519 685.071 64.9377 686.551 81.5426C688.391 102.148 688.971 122.845 688.289 143.521C687.537 173.65 681.48 203.411 670.397 231.437C663.131 249.269 653.263 265.927 641.113 280.866C626.778 298.445 608.793 312.697 588.402 322.635C581.516 326.111 574.179 329.071 566.52 332.096C549.135 316.707 528.789 305.033 506.729 297.792C472.916 286.394 436.722 283.977 401.694 290.777C369.312 297.206 338.544 310.051 311.204 328.556C286.757 345.076 265.041 365.314 246.844 388.54L247.294 388.282ZM574.694 370.39C582.8 383.234 587.761 397.81 589.175 412.932C589.911 420.356 589.651 427.845 588.402 435.201C587.233 442.703 585.203 450.045 582.352 457.083C579.575 464.268 576.105 471.166 571.991 477.678C567.85 484.366 563.156 490.695 557.96 496.6C552.757 502.586 547.098 508.159 541.033 513.269C535.174 518.438 528.814 523.008 522.047 526.914C516.306 530.695 509.725 533.012 502.882 533.663C496.038 534.313 489.139 533.278 482.787 530.647C470.108 524.72 459.857 514.606 453.761 502.006C450.661 495.929 463.666 537.369 462.5 530.647C461.205 523.863 516.06 545.892 516.5 539C517.319 525.38 563.97 508.58 570.5 496.6C577.03 484.62 580.747 459.569 591.749 451.5C603.12 443.416 594.5 427.5 589.175 412.932C603.591 407.011 579 356.81 564.525 356.81C568.226 361.163 571.624 365.764 574.694 370.583" fill="black"/>
<path d="M721.376 684.754C691.109 687.514 661.233 688.614 631.919 688.045C613.208 687.611 594.906 686.088 577.122 683.485C556.29 680.59 536.447 675.781 517.869 669.125C496.774 661.414 477.964 650.715 461.986 637.339C444.678 622.354 431.266 604.14 422.284 583.418C419.846 578.123 418.082 572.397 415.955 566.778C414.231 561.397 413.129 555.742 412.661 549.879C411.451 538.912 414.553 526.822 421.516 515.356C429.362 503.878 439.981 493.54 452.358 485.33C465.656 476.283 479.668 468.317 494.135 461.581C524.712 447.532 555.7 434.875 586.942 423.676C619.221 412.143 651.21 398.952 682.712 384.186C698.918 376.489 714.376 366.93 728.551 355.841C736.017 349.85 742.564 343.022 747.891 335.671C753.495 327.828 757.277 319.461 758.948 311.206C760.48 303.028 760.379 295.1 758.649 287.777C757.131 280.743 754.699 274.092 751.393 267.93C749.553 265.057 748.171 261.953 746.299 259.163C744.427 256.373 742.705 253.548 740.432 251.077L734.286 243.232C732.504 240.447 729.612 238.496 727.306 236.109C724.999 233.721 722.57 231.412 720.014 229.309L711.943 223.32L707.83 220.406C706.457 219.477 704.868 218.75 703.462 217.905L694.481 213.059C691.514 211.53 688.169 210.493 684.985 209.166C681.888 207.834 678.629 206.714 675.23 205.812C668.783 203.832 662.036 202.32 655.04 201.286C629.054 197.512 600.846 198.783 572.093 205.022C547.126 210.368 522.105 218.024 497.479 227.854C476.387 236.167 455.554 245.588 435.119 256.054C405.753 271.045 377.151 287.79 349.584 306.131C330.151 319.131 319.88 327.264 320.248 327.839C330.86 322.222 341.253 316.132 351.372 309.599C379.526 292.818 408.366 277.333 437.727 263.235C458.033 253.561 478.652 244.858 499.468 237.176C523.449 228.3 547.716 221.478 571.865 216.822C598.775 211.513 625.056 210.833 649.179 214.822C655.576 215.859 661.744 217.326 667.638 219.21C670.369 220.136 672.978 221.235 675.449 222.499C678.308 223.723 681.407 224.917 683.964 226.21L691.94 230.702C693.228 231.498 694.61 232.171 695.864 233.051L699.445 235.807L706.694 241.325C708.987 243.285 710.968 245.57 713.166 247.653C715.395 249.73 717.451 251.95 719.326 254.304L724.834 261.56C726.699 263.998 728.353 266.582 729.787 269.296C731.443 271.836 732.913 274.494 734.191 277.258C736.924 282.531 738.91 288.214 740.118 294.217C741.325 299.826 741.334 305.868 740.144 312.087C738.659 318.051 735.807 324.043 731.769 329.685C727.731 335.326 722.595 340.495 716.684 344.866C703.918 354.599 690.038 362.936 675.53 369.588C615.746 397.76 549.426 415.719 486.788 444.97C470.862 452.299 455.419 460.972 440.742 470.829C425.126 481.137 411.747 494.168 401.916 508.645C392.18 524.244 387.629 540.764 388.907 555.86C389.448 563.071 390.752 570.035 392.805 576.673C395.064 582.768 396.96 588.971 399.586 594.831C409.34 617.685 424.01 637.774 443.006 654.288C460.402 669.035 480.974 680.797 504.1 689.219C523.981 696.409 545.248 701.582 567.594 704.665C586.688 707.263 606.349 708.648 626.448 708.81C656.639 709.249 687.465 707.759 718.703 704.351C752.402 700.769 786.443 695.299 820.621 687.973C824.937 687.018 828.622 686.155 831.825 685.351C830.844 685.979 830.122 686.878 829.226 687.638C823.04 692.969 817.133 698.058 811.471 702.991C800.308 712.567 789.735 721.579 781.219 729.211C764.13 744.388 754.175 754.499 755.335 756.312C756.495 758.124 769.186 750.936 788.417 737.754C797.942 731.158 809.048 723.114 821.249 713.809C827.014 709.308 833.582 704.169 840.069 698.771C843.282 696.091 846.589 693.288 849.935 690.274L853.006 687.373C854.538 685.914 855.994 684.4 857.366 682.838C858.701 681.44 859.726 679.877 860.362 678.27C860.998 676.663 861.228 675.056 861.033 673.573L860.599 671.545C860.292 670.81 859.864 670.142 859.325 669.555L855.896 665.954C855.472 665.291 854.533 664.77 854.099 664.363L853.699 663.061L851.694 661.415L843.666 655.087C838.397 651.043 833.209 647.26 828.223 643.658C818.28 636.499 809.049 630.317 801.091 625.315C785.266 615.315 774.195 610.311 772.652 612.358C771.109 614.405 778.037 622.933 791.343 635.481C797.999 641.691 806.173 648.923 815.342 656.764L833.474 671.582C830.256 671.959 826.529 672.35 821.996 672.697C803.145 674.855 771.976 679.786 721.895 684.484" fill="black"/>
<path d="M144.044 225.909C142.586 227.048 141.251 228.335 140.059 229.75C137.762 232.319 136.374 235.572 136.109 239.007C136.133 243.197 137.676 247.237 140.451 250.376C141.737 252.175 143.024 253.974 144.268 255.636C146.707 259.095 149.148 262.463 151.546 265.693C156.432 272.247 161.094 278.569 165.535 284.569C174.555 296.434 182.782 306.918 189.904 315.607C204.149 332.895 213.89 342.725 215.92 341.215C217.951 339.705 211.994 327.123 200.517 307.793C194.779 298.128 187.661 286.754 179.607 274.315C175.443 268.138 171.15 261.55 166.587 254.774C164.403 251.457 162.144 248.092 159.81 244.681C162.352 245.316 164.926 245.819 167.52 246.189C178.038 248.477 195.655 250.806 223.811 256.744C263.915 265.026 303.008 277.607 340.414 294.27C367.601 306.587 393.41 321.742 417.411 339.483C430.612 349.292 443.157 359.955 454.964 371.403C467.178 383.508 478.587 396.4 489.115 409.997C499.661 423.98 509.17 438.715 517.567 454.084C526.025 469.692 533.169 485.979 538.923 502.773C550.404 536.018 555.83 571.052 554.942 606.212C554.396 622.983 552.565 639.688 549.465 656.179C546.386 671.72 542.147 687.009 536.783 701.917C527.846 727.586 515.597 751.98 500.346 774.479C489.735 789.681 477.949 804.027 465.095 817.386C459.762 821.796 454.991 826.844 450.889 832.417C457.155 829.353 462.934 825.38 468.039 820.627C482.584 808.286 495.806 794.467 507.492 779.391C524.719 756.889 538.735 732.102 549.139 705.741C555.344 690.31 560.355 674.425 564.129 658.226C568.017 640.93 570.504 623.35 571.566 605.655C573.56 568.434 568.775 531.161 557.444 495.651C551.755 477.757 544.571 460.372 535.966 443.683C527.411 427.228 517.615 411.45 506.662 396.485C485.642 367.929 460.582 342.58 432.269 321.233C407.268 302.477 380.288 286.516 351.812 273.634C312.889 256.096 271.879 243.619 229.785 236.509C210.278 233.053 190.525 231.165 170.717 230.863L168.531 230.914C192.805 212.598 215.597 192.398 236.696 170.5C255.259 151.272 264.976 137.796 263.188 136.034C259.616 132.326 212.083 177.236 147.323 223.375L144.044 225.909Z" fill="black"/>
<path d="M482.812 417.929C482.412 417.727 482.061 417.336 481.759 416.754C481.456 416.172 481.359 415.442 481.466 414.566C482.014 411.263 482.816 407.623 483.872 403.645C484.953 399.609 486.268 395.835 487.817 392.321C488.334 391.15 488.853 390.052 489.375 389.026C489.923 387.943 490.489 386.975 491.074 386.125C490.591 385.953 490.017 385.986 489.354 386.224C489.022 386.343 488.69 386.462 488.358 386.581C488.052 386.641 487.746 386.701 487.44 386.762C486.413 387.031 485.648 387.182 485.145 387.214C484.673 387.334 484.384 387.117 484.279 386.563C484.185 386.301 484.203 386.024 484.332 385.731C484.719 384.852 485.595 384.292 486.959 384.05C487.82 383.84 488.785 383.79 489.855 383.899C490.389 383.954 490.854 384.01 491.248 384.066C491.669 384.063 492.019 384.061 492.299 384.059C493.691 382.327 495.107 380.858 496.547 379.652C498.013 378.387 499.49 377.414 500.978 376.733C504.581 374.899 508.202 374.686 511.843 376.093C511.983 376.092 512.31 376.221 512.824 376.481C516.081 378.124 517.368 380.67 516.685 384.12C516.613 384.441 516.526 384.719 516.423 384.954C516.402 385.158 516.366 385.319 516.315 385.436C515.721 386.783 514.68 387.797 513.192 388.478C511.564 389.16 509.979 389.112 508.436 388.334C508.15 388.19 507.849 388.002 507.532 387.77C507.215 387.539 506.952 387.263 506.744 386.943C506.39 386.478 506.161 385.969 506.056 385.415C506.081 385.356 506.066 385.313 506.009 385.284C506.035 385.225 506.06 385.167 506.086 385.108C506.215 384.815 506.448 384.682 506.786 384.709C507.123 384.736 507.352 384.852 507.472 385.055C507.925 385.928 508.494 386.538 509.18 386.884C510.094 387.345 511.005 387.339 511.912 386.866C512.876 386.422 513.604 385.643 514.094 384.531C514.275 384.121 514.363 383.843 514.357 383.697C514.741 381.242 513.933 379.51 511.933 378.501L511.505 378.285C511.365 378.286 511.18 378.229 510.952 378.113C508.454 377.283 505.624 377.681 502.462 379.307C501.089 380.046 499.759 380.843 498.474 381.698C497.246 382.582 496.154 383.713 495.197 385.091C495.597 385.293 496.155 385.61 496.872 386.044C497.615 386.418 498.189 386.78 498.595 387.127C499.349 387.794 499.996 388.622 500.538 389.611C501.137 390.629 501.204 391.665 500.739 392.719C500.481 393.305 500.064 393.775 499.489 394.129C498.997 394.453 498.61 394.616 498.33 394.618C498.164 394.677 497.996 394.664 497.824 394.577C497.596 394.462 497.476 394.258 497.465 393.967C497.537 393.645 497.754 393.468 498.118 393.437L498.732 392.995C499.032 392.789 499.234 392.568 499.337 392.334C499.596 391.748 499.415 391.049 498.796 390.235C498.202 389.363 497.443 388.551 496.518 387.798C495.65 387.073 494.876 386.611 494.195 386.411C493.631 387.057 493.008 387.996 492.325 389.226C491.643 390.457 490.979 391.804 490.334 393.268C489.533 395.084 488.79 396.928 488.104 398.801C487.5 400.644 487.078 402.077 486.836 403.101C485.637 407.722 485.097 411.637 485.218 414.848C485.251 415.724 485.164 416.396 484.958 416.864C484.441 418.035 483.726 418.39 482.812 417.929ZM500.553 419.47C498.324 418.346 496.71 416.78 495.709 414.772C494.646 412.589 494.567 410.473 495.47 408.423C496.322 406.491 497.445 405.053 498.839 404.109C500.124 403.254 501.613 402.967 503.305 403.248C503.361 402.489 503.492 401.875 503.698 401.406C504.163 400.352 505.015 399.529 506.254 398.937C507.524 398.433 508.866 398.322 510.278 398.605C510.589 398.69 510.888 398.805 511.173 398.949C511.485 399.035 511.784 399.15 512.069 399.294C514.355 400.447 515.89 402.51 516.675 405.483C517.428 408.368 517.236 411.099 516.1 413.676C514.758 416.721 512.538 418.823 509.443 419.982C506.43 421.111 503.467 420.94 500.553 419.47ZM501.134 418.152C503.388 419.218 505.741 419.188 508.194 418.063C510.563 416.967 512.277 415.219 513.335 412.818C514.265 410.71 514.567 408.679 514.241 406.725C513.878 404.537 512.811 402.997 511.04 402.103C509.783 401.469 508.532 401.375 507.288 401.821C505.96 402.297 504.948 403.325 504.251 404.906C503.889 405.726 503.795 406.574 503.968 407.448C504.095 408.586 504.587 409.371 505.444 409.804L505.616 409.89C506.244 410.207 507.085 410.202 508.137 409.874L508.348 409.872L508.395 410.003C508.317 410.179 508.195 410.297 508.029 410.356C506.656 411.095 505.455 411.205 504.426 410.686C502.769 409.85 501.956 407.972 501.986 405.052C500.284 405.268 498.995 406.371 498.117 408.362C497.342 410.119 497.156 411.886 497.56 413.665C498 415.676 499.191 417.172 501.134 418.152ZM526.448 442.412C526.162 442.268 525.868 441.905 525.566 441.323C524.851 439.459 524.523 437.432 524.58 435.242C524.695 433.081 525.339 430.829 526.512 428.485L527.372 426.772C527.527 426.42 527.763 425.966 528.078 425.41C528.393 424.853 528.776 424.223 529.226 423.519C526.766 425.929 524.782 427.577 523.274 428.462C521.683 429.378 520.33 429.912 519.214 430.065C518.213 430.276 517.284 430.165 516.427 429.733C514.941 428.984 514.302 427.265 514.509 424.578C514.565 423.818 514.928 422.677 515.6 421.155C516.09 420.042 516.664 418.9 517.32 417.728C518.003 416.497 518.781 415.207 519.655 413.859C520.535 412.656 521.267 411.629 521.851 410.779C522.519 409.899 523.083 409.253 523.544 408.841C524.14 408.282 524.952 408.263 525.98 408.781C526.38 408.983 526.859 409.403 527.415 410.042C527.717 410.624 527.752 411.179 527.52 411.706C527.417 411.94 527.202 412.189 526.875 412.454L524.63 414.221C524.303 414.485 523.935 414.765 523.526 415.06C523.2 415.325 522.86 415.619 522.508 415.942C521.286 416.972 520.209 418.147 519.278 419.467C518.404 420.815 517.602 422.237 516.874 423.73C515.918 425.897 516.04 427.283 517.24 427.888C518.212 428.378 519.594 428.253 521.388 427.511C523.125 426.741 524.778 425.606 526.347 424.107C529.288 421.081 531.185 418.601 532.037 416.669C532.683 415.205 533.748 414.848 535.234 415.597C535.862 415.914 536.299 416.349 536.544 416.902C536.872 417.426 536.907 417.98 536.649 418.566L536.129 419.27C534.803 420.534 533.54 421.973 532.339 423.586C531.196 425.229 530.144 427.06 529.183 429.081C529.048 429.228 528.93 429.418 528.826 429.653L528.555 430.268C526.567 434.777 526.112 438.342 527.192 440.962C527.432 441.369 527.461 441.778 527.28 442.188C527.125 442.539 526.848 442.614 526.448 442.412ZM533.603 437.968C532.632 437.478 532.43 436.589 532.998 435.301C533.153 434.949 533.272 434.759 533.355 434.729L535.947 430.99C536.345 430.403 536.756 429.788 537.18 429.143C537.605 428.497 538.016 427.882 538.414 427.295C539.371 425.917 540.274 424.583 541.122 423.292C541.971 422.002 542.666 420.742 543.208 419.513L543.286 419.337C543.466 418.927 543.723 418.663 544.055 418.544C544.386 418.425 544.695 418.437 544.981 418.581C545.438 418.812 545.566 419.235 545.365 419.849C545.293 420.171 545.18 420.507 545.025 420.858C544.953 421.18 544.826 421.546 544.646 421.956C544.465 422.366 544.217 422.849 543.901 423.406C543.669 423.933 543.343 424.592 542.925 425.383C544.359 424.031 545.527 423.045 546.429 422.426C547.388 421.836 548.365 421.362 549.36 421.006C551.844 419.968 553.914 419.867 555.571 420.703C557.234 421.684 558.152 423.007 558.327 424.67C558.517 425.983 558.302 427.342 557.682 428.747C556.856 430.621 555.082 432.267 552.36 433.686C550.712 434.573 549.427 435.428 548.505 436.251C547.583 437.075 546.98 437.809 546.696 438.453C545.999 440.034 545.963 441.304 546.587 442.264C546.79 442.438 546.951 442.626 547.071 442.83C547.217 442.975 547.404 443.105 547.632 443.22C548.432 443.624 549.32 443.75 550.295 443.597C551.353 443.415 552.297 443.176 553.127 442.878C554.04 442.551 555.087 442.077 556.269 441.456C557.533 440.806 558.803 439.907 560.077 438.76C560.403 438.495 560.652 438.406 560.824 438.493C561.166 438.666 561.11 439.031 560.655 439.589C559.355 440.794 558.018 441.766 556.644 442.505C555.328 443.273 554.159 443.864 553.138 444.28C552.199 444.665 551.172 444.935 550.057 445.088C548.968 445.182 547.851 444.942 546.709 444.365C545.223 443.616 544.188 442.557 543.604 441.188C543.077 439.849 543.175 438.359 543.898 436.719C544.57 435.197 545.516 433.921 546.739 432.891C548.019 431.89 549.389 431.078 550.851 430.455C553.584 429.328 555.324 427.916 556.073 426.217C556.848 424.461 556.435 423.179 554.835 422.372C553.692 421.795 552.372 421.701 550.873 422.091C549.374 422.48 547.707 423.25 545.873 424.4C544.779 425.137 543.813 425.903 542.974 426.696C542.161 427.432 541.447 428.181 540.831 428.944L537.799 434.394C536.325 436.943 535.28 438.206 534.662 438.18C534.242 438.183 533.889 438.112 533.603 437.968ZM577.285 470.313C575.399 469.362 573.923 468.116 572.856 466.575C571.94 465.326 571.229 463.929 570.722 462.385C570.19 460.899 569.829 459.5 569.639 458.188C569.428 456.291 569.362 454.54 569.441 452.934C569.521 451.328 569.745 449.472 570.115 447.368C569.24 448.716 568.239 450.037 567.111 451.329C566.008 452.562 564.808 453.46 563.512 454.023C562.19 454.645 560.758 454.567 559.215 453.788C557.044 452.693 555.72 451.023 555.243 448.778C554.766 446.533 555.212 443.858 556.58 440.755C557.536 438.588 558.868 436.755 560.577 435.255C562.287 433.755 564.197 432.75 566.308 432.24C568.476 431.758 570.64 431.919 572.8 432.723C573.47 430.412 574.174 428.262 574.912 426.272C575.707 424.31 576.504 422.422 577.305 420.607C578.157 418.674 578.934 416.99 579.637 415.555C580.423 414.09 581.149 412.918 581.817 412.038C582.929 410.308 584.12 409.191 585.39 408.686C586.661 408.182 587.782 408.174 588.753 408.664C590.067 409.327 590.921 410.796 591.315 413.071C591.792 415.316 591.308 418.078 589.862 421.357C588.984 423.348 588.004 425.253 586.924 427.07C585.9 428.916 585.083 430.293 584.473 431.202C581.601 435.337 577.82 439.873 573.129 444.808C572.354 448.784 571.879 452.159 571.703 454.934C571.61 457.679 571.851 459.984 572.426 461.848C572.875 463.364 573.503 464.79 574.31 466.128C575.092 467.524 576.041 468.54 577.158 469.175C577.844 469.521 578.638 469.779 579.541 469.948C580.445 470.117 581.31 469.659 582.138 468.574C582.299 468.368 582.535 468.308 582.846 468.394C583.158 468.479 583.236 468.698 583.081 469.049C582.874 469.518 582.621 469.855 582.32 470.061C581.994 470.326 581.68 470.562 581.38 470.768C580.773 471.035 580.117 471.098 579.411 470.956C578.736 470.902 578.028 470.688 577.285 470.313ZM573.661 442.177C575.674 439.828 577.458 437.685 579.01 435.748C580.646 433.782 582.048 431.948 583.217 430.247C583.693 429.485 584.417 428.239 585.389 426.51C586.387 424.723 587.247 423.009 587.97 421.37C589.081 418.852 589.621 416.834 589.592 415.316C589.589 413.739 589.244 412.778 588.558 412.432C587.473 411.884 586.229 412.724 584.828 414.952C582.532 418.733 580.648 422.293 579.176 425.631C578.014 428.266 576.992 430.9 576.11 433.534C575.228 436.167 574.412 439.048 573.661 442.177ZM560.839 452.245C562.116 452.675 563.315 452.492 564.434 451.696C565.579 450.842 566.588 449.741 567.462 448.392C568.362 446.985 569.058 445.725 569.548 444.612C570.271 442.973 570.81 441.276 571.164 439.522C571.602 437.738 571.858 436.364 571.934 435.4L571.047 435.274C568.482 434.911 566.195 435.583 564.186 437.29C562.233 439.025 560.727 441.093 559.669 443.494C558.506 446.129 558.176 448.146 558.677 449.544C559.095 450.972 559.816 451.872 560.839 452.245Z" fill="#C2B6E8"/>
<path d="M507.997 460.656C507.872 460.828 507.694 460.819 507.465 460.628C506.809 460.083 506.615 459.589 506.883 459.148L507.713 457.679L508.868 455.981C510.047 454.359 510.815 453.447 511.172 453.245C511.421 453.12 511.644 453.139 511.84 453.303C512.169 453.576 512.245 453.833 512.069 454.075C512.019 454.144 511.965 454.182 511.907 454.189C511.799 454.265 511.695 454.372 511.595 454.51C511.461 454.621 511.332 454.763 511.207 454.936C510.78 455.522 509.711 457.429 507.997 460.656Z" fill="white"/>
<path d="M449.011 515.655C448.295 516.119 447.763 516.051 447.417 515.451C447.283 515.22 447.213 514.885 447.205 514.446C447.17 513.96 447.154 513.559 447.155 513.241L445.953 496.79C445.401 489.66 444.951 485.795 444.604 485.195C444.23 484.548 444.357 484.022 444.984 483.616C445.834 483.066 446.527 483.252 447.06 484.176C447.247 484.499 447.446 485.322 447.657 486.645C447.868 487.968 448.047 489.502 448.194 491.247C448.507 494.344 448.679 496.77 448.71 498.527C449.119 496.041 449.604 493.633 450.164 491.303C450.725 488.973 451.348 486.698 452.033 484.477C454.071 477.891 456.232 473.859 458.515 472.38C460.082 471.366 461.306 471.62 462.186 473.144C462.987 474.53 463.647 478.386 464.166 484.713C464.711 491.086 465.357 494.919 466.105 496.212C466.452 496.812 466.827 496.982 467.229 496.721C467.364 496.634 467.539 496.457 467.754 496.191C467.987 495.849 468.26 495.577 468.574 495.374C469.335 494.882 469.929 495.005 470.356 495.743C470.89 496.667 470.194 497.752 468.269 498.998C467.373 499.578 466.604 499.791 465.961 499.636C465.291 499.435 464.743 498.965 464.316 498.226C463.035 496.01 462.184 491.929 461.762 485.983C461.367 480.084 460.903 476.672 460.369 475.749C460.049 475.194 459.688 475.048 459.285 475.309C458.3 475.946 457.204 477.83 455.998 480.959C454.693 484.342 453.547 488.002 452.562 491.94C451.577 495.877 450.904 500.089 450.543 504.574L449.726 514.336C449.697 514.926 449.459 515.366 449.011 515.655ZM482.291 491.252C478.665 493.6 475.637 492.673 473.209 488.471C472.088 486.531 471.361 484.21 471.029 481.506C470.697 478.802 470.749 476.071 471.186 473.314C471.596 470.51 472.363 467.951 473.486 465.638C474.655 463.295 476.179 461.514 478.059 460.297C479.716 459.225 481.298 459.088 482.806 459.889C484.314 460.689 485.522 461.874 486.43 463.444C487.63 465.522 488.455 467.907 488.903 470.599C489.325 473.245 489.363 475.917 489.015 478.617C488.668 481.316 487.942 483.786 486.837 486.024C485.731 488.263 484.216 490.006 482.291 491.252ZM480.943 489.079C481.211 488.905 481.355 488.781 481.373 488.705C482.985 487.344 484.223 485.654 485.087 483.635C485.95 481.617 486.466 479.475 486.633 477.209C486.818 474.868 486.668 472.586 486.183 470.362C485.697 468.138 484.934 466.125 483.893 464.325C483.28 463.262 482.508 462.62 481.579 462.396C480.65 462.173 479.738 462.351 478.843 462.931C477.545 463.771 476.477 465.224 475.64 467.289C474.848 469.325 474.296 471.617 473.986 474.166C473.719 476.686 473.73 479.154 474.019 481.569C474.28 483.938 474.838 485.861 475.692 487.339C477.133 489.832 478.883 490.412 480.943 489.079ZM502.243 485.377C501.392 485.928 500.567 485.51 499.766 484.125C498.592 482.093 497.634 477.827 496.892 471.328C496.195 464.799 495.665 456.004 495.303 444.944C493.601 446.046 492.123 447.32 490.868 448.767C489.631 450.14 489.154 451.178 489.438 451.882C489.5 452.096 489.495 452.353 489.423 452.654C489.368 452.879 489.185 453.093 488.871 453.296C488.155 453.76 487.583 453.623 487.156 452.884C486.462 451.683 486.806 450.096 488.188 448.123C489.57 446.149 491.918 444.09 495.23 441.945L495.301 431.049C495.32 430.338 495.336 429.566 495.347 428.734C495.332 427.856 495.334 426.902 495.355 425.873C495.429 424.937 495.757 424.281 496.339 423.904C496.697 423.672 497.033 423.613 497.345 423.728C497.631 423.797 497.841 423.947 497.974 424.178C498.374 424.87 498.457 427.355 498.222 431.632C497.921 436.967 497.774 439.854 497.782 440.293C498.454 439.858 499.501 439.275 500.924 438.544C502.321 437.767 504.003 436.899 505.972 435.942C506.67 435.553 507.206 435.682 507.58 436.328C508.007 437.067 507.817 437.698 507.012 438.219C506.698 438.422 506.045 438.782 505.051 439.298C504.031 439.768 502.957 440.305 501.829 440.909C500.701 441.512 499.77 442.083 499.036 442.622L498.069 443.343C498.508 465.713 499.91 478.892 502.277 482.88L502.664 483.391L502.744 483.529C503.171 484.268 503.004 484.884 502.243 485.377Z" fill="#FF5B5B"/>
</svg>
